PathFileType	4	(X/Y/Z)	/tmp/tmpjnq7zxqp/Me/MarkerData/slow walking_segment_0.trc
DataRate	CameraRate	NumFrames	NumMarkers	Units	OrigDataRate	OrigDataStartFrame	OrigNumFrames
100.092	100.092	8	38	m	100.092	814	1086
Frame#	Time	C7			CLAV			LANK			LASI			LBHD			LELB			LFHD			LFIN			LFRM			LHEE			LKNE			LPSI			LSHO			LTHI			LTIB			LTOE			LUPA			LWRA			LWRB			RANK			RBAK			RBHD			RELB			RFHD			RFIN			RFRM			RHEE			RKNE			RPSI			RSHO			RTHI			RTIB			RTOE			RUPA			RWRA			RWRB			STRN			T10		
		X1	Y1	Z1	X2	Y2	Z2	X3	Y3	Z3	X4	Y4	Z4	X5	Y5	Z5	X6	Y6	Z6	X7	Y7	Z7	X8	Y8	Z8	X9	Y9	Z9	X10	Y10	Z10	X11	Y11	Z11	X12	Y12	Z12	X13	Y13	Z13	X14	Y14	Z14	X15	Y15	Z15	X16	Y16	Z16	X17	Y17	Z17	X18	Y18	Z18	X19	Y19	Z19	X20	Y20	Z20	X21	Y21	Z21	X22	Y22	Z22	X23	Y23	Z23	X24	Y24	Z24	X25	Y25	Z25	X26	Y26	Z26	X27	Y27	Z27	X28	Y28	Z28	X29	Y29	Z29	X30	Y30	Z30	X31	Y31	Z31	X32	Y32	Z32	X33	Y33	Z33	X34	Y34	Z34	X35	Y35	Z35	X36	Y36	Z36	X37	Y37	Z37	X38	Y38	Z38

815	8.1325	0.00982246	1.43724	0.0287607	-0.160667	1.37099	0.00889877	0.24567	0.143041	0.135752	-0.107197	0.968196	0.185268	-0.0767316	1.58471	0.0998085	-0.202397	1.09492	0.294894	-0.179965	1.65748	0.0617508	-0.388488	0.816279	0.270391	-0.253888	0.944632	0.286133	0.328485	0.139617	0.0779143	-0.00562234	0.46011	0.174663	0.0221481	0.988586	0.0439837	-0.0925068	1.43079	0.192427	-0.0520799	0.645367	0.198214	0.163898	0.275055	0.167738	0.122335	0.0624755	0.0680247	-0.161614	1.27374	0.276007	-0.339795	0.89613	0.225866	-0.307941	0.872083	0.286168	-0.268709	0.0946733	-0.0940868	0.0680711	1.29794	-0.0780098	-0.0441017	1.57777	-0.0455236	-0.00772879	1.07666	-0.235076	-0.149978	1.64127	-0.0629916	-0.0328049	0.729883	-0.268182	0.00140003	0.98805	-0.243023	-0.195822	0.0578662	-0.0295253	-0.249589	0.497841	-0.106235	0.0203194	0.983135	-0.0198842	-0.0497085	1.41795	-0.152968	-0.191905	0.817778	-0.150404	-0.229465	0.369415	-0.135362	-0.43044	0.0685069	-0.036508	-0.034697	1.17151	-0.227161	-0.0534254	0.825624	-0.20943	0.00495857	0.819155	-0.252392	-0.209048	1.21393	0.0174142	0.0452301	1.20642	0.0444187
816	8.1425	0.00896646	1.43833	0.026306	-0.161516	1.37225	0.00779651	0.246577	0.147948	0.136187	-0.108639	0.96883	0.183417	-0.0768568	1.58603	0.0978014	-0.197178	1.09464	0.29405	-0.180059	1.65894	0.059894	-0.379456	0.813416	0.270428	-0.246625	0.943656	0.28553	0.329212	0.148482	0.0778996	-0.012386	0.459629	0.175851	0.0206059	0.989067	0.0425498	-0.0920431	1.43188	0.190855	-0.056914	0.645588	0.197591	0.161944	0.27842	0.167866	0.129515	0.0620967	0.0681957	-0.158909	1.27419	0.275136	-0.331959	0.893757	0.225649	-0.299609	0.870467	0.286061	-0.261219	0.0945766	-0.0941949	0.0663777	1.29878	-0.0809583	-0.0447381	1.57861	-0.0476223	-0.0122323	1.07694	-0.236894	-0.150523	1.64229	-0.0649122	-0.0389425	0.730228	-0.269036	-0.00358899	0.988283	-0.244658	-0.188217	0.0579558	-0.0297021	-0.248748	0.498199	-0.107951	0.0188398	0.983734	-0.0212954	-0.0517828	1.41877	-0.15501	-0.19398	0.819564	-0.151262	-0.227003	0.369714	-0.136764	-0.422975	0.0676209	-0.0362339	-0.0385848	1.17201	-0.228935	-0.0586506	0.826158	-0.210274	-0.00073328	0.819451	-0.253893	-0.210748	1.21541	0.016452	0.0437733	1.20734	0.0417847
817	8.15249	0.00813893	1.43949	0.0239128	-0.162264	1.37356	0.00672709	0.246553	0.153233	0.136534	-0.110067	0.969532	0.181529	-0.0769801	1.5874	0.0958658	-0.191725	1.09453	0.293157	-0.180183	1.66042	0.0580802	-0.370011	0.810643	0.270777	-0.238946	0.942844	0.284904	0.328696	0.158168	0.0777793	-0.0198436	0.459042	0.177541	0.019256	0.989521	0.0412437	-0.0915497	1.43307	0.189275	-0.0622373	0.645797	0.197229	0.159357	0.281985	0.168427	0.136053	0.0619265	0.0684383	-0.15607	1.27481	0.274308	-0.323802	0.891533	0.225547	-0.290899	0.868802	0.285832	-0.253315	0.0943226	-0.0938882	0.0646699	1.2999	-0.0840588	-0.0454222	1.57948	-0.0496522	-0.0169541	1.07749	-0.238717	-0.151112	1.64336	-0.0668035	-0.0455717	0.730913	-0.269922	-0.00886675	0.988737	-0.246234	-0.180396	0.0581556	-0.0297458	-0.247583	0.498574	-0.109426	0.0175761	0.984291	-0.0225687	-0.053964	1.41985	-0.157108	-0.195859	0.821256	-0.152341	-0.224522	0.369986	-0.137826	-0.415368	0.0670308	-0.0361349	-0.0426238	1.17278	-0.230744	-0.0641323	0.826993	-0.21102	-0.00681719	0.819984	-0.255362	-0.212213	1.21703	0.0154355	0.0423521	1.2085	0.0391456
818	8.16248	0.00740483	1.44062	0.0215566	-0.162933	1.37488	0.00570023	0.245708	0.158905	0.136813	-0.111382	0.970309	0.179653	-0.0771107	1.58876	0.0939727	-0.186064	1.09455	0.292146	-0.18031	1.66188	0.0563107	-0.360179	0.807939	0.27142	-0.23095	0.942245	0.284227	0.327054	0.168608	0.0776143	-0.0278379	0.458325	0.179639	0.0180744	0.98996	0.0399849	-0.0910085	1.43432	0.187667	-0.0679651	0.645992	0.197134	0.155936	0.285637	0.16911	0.141825	0.0620357	0.0687713	-0.153082	1.27555	0.27347	-0.315385	0.889435	0.225556	-0.281699	0.867257	0.285562	-0.245605	0.0941447	-0.0938423	0.0629497	1.30122	-0.087284	-0.0460851	1.58036	-0.0516755	-0.0218521	1.07831	-0.240537	-0.151749	1.64441	-0.0686313	-0.0525527	0.73189	-0.270791	-0.0143413	0.989525	-0.248014	-0.172526	0.0583852	-0.0296729	-0.246176	0.498886	-0.110808	0.0164603	0.984822	-0.0238355	-0.0559645	1.42113	-0.159121	-0.197361	0.822649	-0.153895	-0.221812	0.370146	-0.138604	-0.407747	0.0665216	-0.036152	-0.0468055	1.17381	-0.232525	-0.0700829	0.828097	-0.211914	-0.0132895	0.820781	-0.256872	-0.213456	1.21872	0.0143883	0.0410538	1.20984	0.036486
819	8.17247	0.00678929	1.44165	0.0192125	-0.163598	1.37616	0.00470798	0.244255	0.16505	0.137086	-0.112533	0.971142	0.177686	-0.0772257	1.59006	0.0921232	-0.180249	1.09462	0.290992	-0.180446	1.66327	0.0546254	-0.349891	0.805397	0.272268	-0.222659	0.941783	0.283566	0.32447	0.179725	0.0774607	-0.0364247	0.457507	0.18176	0.0171466	0.990344	0.0387368	-0.0903595	1.43559	0.186017	-0.0740319	0.646123	0.197249	0.15168	0.289334	0.169739	0.146678	0.0625858	0.0691247	-0.149955	1.27637	0.272623	-0.306739	0.887452	0.225666	-0.272031	0.865818	0.285327	-0.238058	0.0940387	-0.09394	0.0612261	1.30267	-0.0906062	-0.0467574	1.58121	-0.0536358	-0.0268986	1.07936	-0.242389	-0.152383	1.64538	-0.0703723	-0.0599406	0.7331	-0.27166	-0.0199518	0.990576	-0.249916	-0.164974	0.0583296	-0.0295783	-0.244403	0.498978	-0.112221	0.0155037	0.985349	-0.0250825	-0.0581389	1.42257	-0.160996	-0.198323	0.823581	-0.156034	-0.218616	0.370157	-0.139306	-0.400157	0.066012	-0.0361337	-0.0511175	1.17502	-0.234288	-0.0766241	0.829439	-0.213002	-0.0201177	0.821835	-0.25859	-0.214459	1.22038	0.0133007	0.0399573	1.21125	0.0337167
820	8.18246	0.00631417	1.44254	0.0168636	-0.164237	1.37733	0.00376901	0.242308	0.171694	0.137381	-0.113422	0.97199	0.175767	-0.077299	1.59128	0.0903466	-0.17432	1.09484	0.289916	-0.180571	1.66455	0.0530229	-0.339147	0.802983	0.273231	-0.213968	0.941308	0.283109	0.320981	0.191403	0.0772523	-0.0456514	0.456651	0.183677	0.016452	0.990664	0.0373922	-0.0895613	1.43684	0.184358	-0.0803666	0.646161	0.197508	0.146749	0.293143	0.170281	0.150467	0.0638101	0.0695176	-0.14674	1.27725	0.271761	-0.297895	0.885584	0.225868	-0.261962	0.864489	0.285111	-0.230449	0.0939919	-0.0939856	0.0594831	1.30411	-0.0939095	-0.0474823	1.58202	-0.0554713	-0.0320906	1.08059	-0.244302	-0.152971	1.64624	-0.0719529	-0.0677019	0.734513	-0.272513	-0.0257604	0.991746	-0.251751	-0.157162	0.0584509	-0.0296224	-0.242059	0.49878	-0.113613	0.0146445	0.985871	-0.0263502	-0.0605457	1.4241	-0.162797	-0.19857	0.823959	-0.158642	-0.214663	0.370049	-0.14004	-0.392546	0.0655527	-0.0361169	-0.0555907	1.17639	-0.236081	-0.0831109	0.831045	-0.213887	-0.0273726	0.823005	-0.260202	-0.21523	1.22189	0.0122114	0.0391208	1.21264	0.0307973
821	8.19245	0.00594644	1.44336	0.014541	-0.164833	1.37839	0.00289918	0.239933	0.178791	0.137661	-0.113737	0.972844	0.174341	-0.0773706	1.59246	0.088663	-0.168312	1.09519	0.288908	-0.180693	1.66571	0.0515102	-0.328054	0.800575	0.274313	-0.205097	0.940865	0.282656	0.316646	0.20356	0.0769847	-0.0553882	0.455787	0.185358	0.0160541	0.990902	0.0360076	-0.0885964	1.43801	0.182693	-0.086828	0.646065	0.197831	0.141323	0.297207	0.170718	0.152973	0.0658456	0.0700091	-0.143456	1.27814	0.2709	-0.288863	0.883794	0.226145	-0.251622	0.863282	0.284833	-0.222646	0.0940603	-0.0940031	0.0577427	1.30547	-0.0971566	-0.0482336	1.58276	-0.0571551	-0.0373941	1.08192	-0.246237	-0.153523	1.64703	-0.0733923	-0.0759479	0.736035	-0.273367	-0.0318023	0.993089	-0.253756	-0.149384	0.0584043	-0.0297512	-0.239015	0.498361	-0.114875	0.0139035	0.986379	-0.0277076	-0.0627787	1.42564	-0.164426	-0.198063	0.823827	-0.161421	-0.209905	0.369843	-0.140821	-0.384844	0.0652095	-0.0361789	-0.0600943	1.17785	-0.237875	-0.0895295	0.832844	-0.21453	-0.0347954	0.824302	-0.261841	-0.215858	1.22325	0.0111705	0.0385407	1.2139	0.0277241
822	8.20244	0.00563975	1.44415	0.0122076	-0.165368	1.37933	0.00211111	0.23706	0.186392	0.137787	-0.11379	0.973612	0.172949	-0.0774433	1.59355	0.0870777	-0.162259	1.09554	0.287908	-0.180798	1.66679	0.0500974	-0.316697	0.798119	0.275464	-0.196176	0.940534	0.282096	0.31147	0.216115	0.0766804	-0.0654369	0.454951	0.186759	0.0158813	0.991053	0.034607	-0.0874329	1.43905	0.18106	-0.0933764	0.645882	0.198139	0.135405	0.301472	0.171048	0.15406	0.0685169	0.0705382	-0.140098	1.27897	0.270075	-0.279678	0.882028	0.226504	-0.241067	0.862094	0.284593	-0.214704	0.0941568	-0.0940673	0.0560535	1.30673	-0.10037	-0.0488378	1.58343	-0.0588327	-0.0427703	1.0833	-0.248238	-0.154154	1.64776	-0.0749118	-0.0846634	0.737601	-0.274154	-0.0379854	0.99446	-0.255787	-0.141488	0.0583806	-0.0298163	-0.23534	0.497867	-0.11596	0.0133747	0.986792	-0.0290801	-0.0648618	1.42716	-0.165937	-0.196989	0.823465	-0.164003	-0.204692	0.36964	-0.141763	-0.377084	0.0649803	-0.0362382	-0.0646142	1.17934	-0.239679	-0.0963319	0.834712	-0.215228	-0.0424383	0.825645	-0.263551	-0.216315	1.22442	0.0102008	0.0380934	1.21496	0.0245275
